<svg width="18" height="18" viewBox="0 0 18 18" fill="none" xmlns="http://www.w3.org/2000/svg">
<path d="M9 0C4.03746 0 0 4.03746 0 9C0 13.9625 4.03746 18 9 18C10.5826 18 12.1388 17.5836 13.5011 16.7954L12.375 14.8475C11.3544 15.438 10.1871 15.75 9 15.75C5.27785 15.75 2.24999 12.7222 2.24999 9C2.24999 5.27785 5.27785 2.24999 9 2.24999C12.7222 2.24999 15.75 5.27785 15.75 9V9.97997C15.75 10.7161 15.2771 11.25 14.625 11.25C14.0048 11.25 13.5 10.7452 13.5 10.125V5.62499H11.9448C11.1534 4.9336 10.1309 4.49998 9 4.49998C6.51873 4.49998 4.49998 6.51873 4.49998 9C4.49998 11.4813 6.51873 13.5 9 13.5C10.1816 13.5 11.2499 13.0328 12.0537 12.2852C12.6732 13.0215 13.5896 13.5 14.625 13.5C16.5174 13.5 18 11.9537 18 9.97997V9C18 4.03746 13.9625 0 9 0V0ZM9 11.25C7.75908 11.25 6.75001 10.2409 6.75001 9C6.75001 7.75908 7.75911 6.75001 9 6.75001C10.2409 6.75001 11.25 7.75911 11.25 9C11.25 10.2409 10.2409 11.25 9 11.25Z" fill="#F4AC4C"/>
</svg>
