<svg width="33" height="33" viewBox="0 0 33 33" fill="none" xmlns="http://www.w3.org/2000/svg">
<mask id="mask0" mask-type="alpha" maskUnits="userSpaceOnUse" x="0" y="0" width="33" height="33">
<path d="M16.5 33C25.6127 33 33 25.6127 33 16.5C33 7.3873 25.6127 0 16.5 0C7.3873 0 0 7.3873 0 16.5C0 25.6127 7.3873 33 16.5 33Z" fill="#32438E"/>
</mask>
<g mask="url(#mask0)">
<path d="M16.5 33C25.6127 33 33 25.6127 33 16.5C33 7.3873 25.6127 0 16.5 0C7.3873 0 0 7.3873 0 16.5C0 25.6127 7.3873 33 16.5 33Z" fill="#E5E5E5"/>
<path d="M11.7206 22.5383C8.37508 22.5383 5.64404 25.2466 5.64404 28.6149V34.4348H27.3558V28.6149C27.3558 25.2694 24.6475 22.5383 21.2792 22.5383H11.7206Z" fill="#C4C4C4"/>
<path d="M16.5008 18.6291C19.442 18.6291 21.8263 16.2447 21.8263 13.3035C21.8263 10.3623 19.442 7.97803 16.5008 7.97803C13.5596 7.97803 11.1753 10.3623 11.1753 13.3035C11.1753 16.2447 13.5596 18.6291 16.5008 18.6291Z" fill="#C4C4C4"/>
</g>
</svg>
