<svg width="22" height="16" viewBox="0 0 22 16" fill="none" xmlns="http://www.w3.org/2000/svg">
<path d="M0 12.9939L2.0101 12.9939C4.13187 12.9939 6.14196 12.151 7.5937 10.4653L11.1672 6.49181C12.6189 4.92649 14.629 3.96322 16.7508 3.96322L17.7559 3.96322" stroke="#808080" stroke-width="1.5" stroke-miterlimit="10"/>
<path d="M6.81204 5.28784C5.3603 3.72252 3.35021 2.75925 1.22844 2.75925L0.223389 2.75925" stroke="#808080" stroke-width="1.5" stroke-miterlimit="10"/>
<path d="M18.0909 11.79L16.0809 11.79C15.2991 11.79 14.6291 11.6696 13.8474 11.4288" stroke="#808080" stroke-width="1.5" stroke-miterlimit="10"/>
<path d="M21.7858 4.29024L18.1006 7.18006C17.989 7.30047 17.7656 7.18006 17.7656 6.93924L17.7656 1.15961C17.7656 0.918789 17.989 0.79838 18.1006 0.918789L21.7858 3.80861C21.8975 3.92901 21.8975 4.16983 21.7858 4.29024Z" fill="#808080"/>
<path d="M21.7858 11.635L18.1006 8.7452C17.989 8.62479 17.7656 8.7452 17.7656 8.98602L17.7656 14.7657C17.7656 15.0065 17.989 15.1269 18.1006 15.0065L21.7858 12.1167C21.8975 11.9962 21.8975 11.7554 21.7858 11.635Z" fill="#808080"/>
</svg>
