<svg width="0" height="0" class="hidden">
  <symbol viewBox="0 0 13 17" fill="none" xmlns="http://www.w3.org/2000/svg" id="play-btn">
    <path d="M12.354 8.883L.895 16.97V.797l11.459 8.086z" fill="#151515"></path>
  </symbol>
  <symbol viewBox="0 0 6 10" fill="none" xmlns="http://www.w3.org/2000/svg" id="play-white-btn">
    <path d="M6 5L0 9.33V.67L6 5z" fill="#fff"></path>
  </symbol>
  <symbol viewBox="0 0 15 16" fill="none" xmlns="http://www.w3.org/2000/svg" id="plus-icon">
    <path d="M7.523 0v8m0 0v8m0-8H0m7.523 0H15" stroke="gray" stroke-width="1.5"></path>
  </symbol>
  <symbol viewBox="0 0 20 17" fill="none" xmlns="http://www.w3.org/2000/svg" id="repeat-icon">
    <path d="M18.576 4.023l-3.124 2.272V1.75l3.124 2.272z" fill="gray" stroke="gray"></path>
    <path d="M14.952 4.023H5.369A3.35 3.35 0 0 0 2.02 7.37v.693" stroke="gray" stroke-width="1.5" stroke-miterlimit="10"></path>
    <path d="M1.514 13.953l3.124-2.272v4.544l-3.124-2.272z" fill="gray" stroke="gray"></path>
    <path d="M5.022 13.953h9.7a3.35 3.35 0 0 0 3.348-3.349v-.693" stroke="gray" stroke-width="1.5" stroke-miterlimit="10"></path>
  </symbol>
  <symbol viewBox="0 0 16 8" fill="none" xmlns="http://www.w3.org/2000/svg" id="sc-icon">
    <path d="M12.889 3.556a2.21 2.21 0 0 0-.463.048A4.007 4.007 0 0 0 8.444 0C8.2 0 8 .2 8 .444v7.112C8 7.8 8.2 8 8.444 8h4.445a2.224 2.224 0 0 0 2.222-2.222 2.225 2.225 0 0 0-2.222-2.222zM6.667.889a.444.444 0 0 0-.445.444v6.222a.445.445 0 0 0 .89 0V1.333c0-.245-.2-.444-.445-.444zM4.889 2.667a.445.445 0 0 0-.445.444v4.444a.445.445 0 0 0 .89 0V3.111c0-.245-.2-.445-.445-.445zm-1.778 0a.444.444 0 0 0-.444.444v4.444a.445.445 0 0 0 .889 0V3.111c0-.245-.2-.445-.445-.445zM1.333 4c-.245 0-.444.2-.444.444v2.667a.445.445 0 0 0 .889 0V4.444c0-.245-.2-.444-.445-.444z"
      fill="#fff"></path>
  </symbol>
  <symbol viewBox="0 0 19 19" fill="none" xmlns="http://www.w3.org/2000/svg" id="search-icon">
    <path d="M7.8 13.716c3.345 0 6.055-2.678 6.055-5.982 0-3.303-2.71-5.98-6.054-5.98-3.344 0-6.055 2.677-6.055 5.98 0 3.304 2.71 5.982 6.055 5.982zM12 12l6 6" stroke="#151515" stroke-width="2" stroke-miterlimit="10"></path>
  </symbol>
  <symbol viewBox="0 0 14 17" fill="none" xmlns="http://www.w3.org/2000/svg" id="share-icon">
    <path d="M13 7.951V16H1V7.951m6 2.744V1.183M4 4.104L6.995 1l2.818 3.104" stroke="gray" stroke-width="1.5" stroke-linejoin="round"></path>
  </symbol>
  <symbol viewBox="0 0 15 3" fill="none" xmlns="http://www.w3.org/2000/svg" id="show-more-icon">
    <circle cx="1.5" cy="1.5" r="1.5" fill="#151515"></circle>
    <circle cx="7.5" cy="1.5" r="1.5" fill="#151515"></circle>
    <circle cx="13.5" cy="1.5" r="1.5" fill="#151515"></circle>
  </symbol>
  <symbol viewBox="0 0 22 16" fill="none" xmlns="http://www.w3.org/2000/svg" id="shuffle-icon">
    <path d="M0 12.994h2.01c2.122 0 4.132-.843 5.584-2.529l3.573-3.973c1.452-1.566 3.462-2.529 5.584-2.529h1.005M6.812 5.288C5.36 3.723 3.35 2.759 1.228 2.759H.223M18.09 11.79h-2.01c-.78 0-1.45-.12-2.233-.361" stroke="gray" stroke-width="1.5" stroke-miterlimit="10"></path>
    <path d="M21.786 4.29L18.1 7.18c-.112.12-.335 0-.335-.24V1.16c0-.241.223-.362.335-.241l3.685 2.89c.111.12.111.36 0 .481zm0 7.345L18.1 8.745c-.112-.12-.335 0-.335.241v5.78c0 .24.223.36.335.24l3.685-2.89c.111-.12.111-.36 0-.481z" fill="gray"></path>
  </symbol>
  <symbol viewBox="0 0 14 15" fill="none" xmlns="http://www.w3.org/2000/svg" id="skip-left-icon">
    <path d="M2 7.333l9-6.35v12.701l-9-6.35zm0 6.334H0v-13h2z" fill="#C4C4C4"></path>
  </symbol>
  <symbol viewBox="0 0 14 15" fill="none" xmlns="http://www.w3.org/2000/svg" id="skip-right-icon">
    <path d="M12 7.333l-9 6.351V.982l9 6.351zM12 1h2v13h-2z" fill="#C4C4C4"></path>
  </symbol>
  <symbol viewBox="0 0 8 17" fill="none" xmlns="http://www.w3.org/2000/svg" id="slider-arrow-left">
    <path d="M7 1L1 8.716 7 16" stroke="gray" stroke-width="1.5" stroke-miterlimit="10"></path>
  </symbol>
  <symbol viewBox="0 0 8 17" fill="none" xmlns="http://www.w3.org/2000/svg" id="slider-arrow-right">
    <path d="M1 16l6-7.716L1 1" stroke="gray" stroke-width="1.5" stroke-miterlimit="10"></path>
  </symbol>
  <symbol id="sprite"></symbol>
  <symbol viewBox="0 0 14 10" fill="none" xmlns="http://www.w3.org/2000/svg" id="twitter-icon">
    <path d="M13.156 1.183c-.453.2-.94.337-1.45.398.521-.312.92-.808 1.11-1.396-.49.289-1.03.499-1.605.613A2.526 2.526 0 0 0 6.908 3.1 7.17 7.17 0 0 1 1.701.462a2.524 2.524 0 0 0 .782 3.371 2.526 2.526 0 0 1-1.144-.317v.031a2.53 2.53 0 0 0 2.026 2.477 2.558 2.558 0 0 1-.666.088c-.163 0-.32-.016-.475-.047A2.527 2.527 0 0 0 4.583 7.82 5.067 5.067 0 0 1 1.447 8.9c-.204 0-.405-.013-.602-.035A7.139 7.139 0 0 0 4.715 10c4.647 0 7.186-3.848 7.186-7.185l-.008-.327a5.043 5.043 0 0 0 1.263-1.305z"
      fill="#fff"></path>
  </symbol>
  <symbol viewBox="0 0 21 21" fill="none" xmlns="http://www.w3.org/2000/svg" id="user-icon">
    <path d="M10.5 20a9.5 9.5 0 1 0 0-19 9.5 9.5 0 0 0 0 19z" stroke="#151515" stroke-width="1.5" stroke-miterlimit="10"></path>
    <path d="M10.5 11.726a3.066 3.066 0 1 0 0-6.133 3.066 3.066 0 0 0 0 6.133zm-6.25 5.749a3.498 3.498 0 0 1 3.498-3.498h5.504a3.498 3.498 0 0 1 3.498 3.498" stroke="#151515" stroke-width="1.5" stroke-miterlimit="10"></path>
  </symbol>
  <symbol viewBox="0 0 20 11" fill="none" xmlns="http://www.w3.org/2000/svg" id="vk-clr-icon">
    <path fill-rule="evenodd" clip-rule="evenodd" d="M17.213 6.994c.663.63 1.363 1.222 1.959 1.915.262.308.511.626.702.983.27.508.025 1.067-.444 1.098l-2.913-.002c-.752.061-1.351-.233-1.855-.732-.404-.4-.777-.825-1.165-1.238a2.732 2.732 0 0 0-.525-.453c-.397-.25-.743-.174-.97.23-.231.41-.284.864-.307 1.32-.03.668-.238.843-.927.873-1.473.068-2.871-.149-4.17-.87-1.144-.637-2.032-1.536-2.805-2.554C2.29 5.584 1.136 3.406.101 1.168-.132.664.038.394.611.384A79.747 79.747 0 0 1 3.463.383c.387.005.642.22.792.575A17.037 17.037 0 0 0 6.188 4.44c.21.289.425.577.73.78.338.225.595.15.754-.215.101-.232.145-.482.168-.73.075-.855.085-1.708-.047-2.56-.08-.532-.389-.876-.935-.976C6.58.688 6.621.587 6.756.432 6.99.166 7.211 0 7.65 0h3.293c.518.1.633.326.704.833l.003 3.555c-.006.196.1.778.464.908.292.093.483-.134.658-.313.788-.813 1.351-1.774 1.854-2.77.223-.437.415-.892.6-1.346.138-.337.355-.503.745-.495l3.17.003c.093 0 .188 0 .28.016.533.088.68.312.515.819-.26.795-.766 1.457-1.26 2.123-.529.71-1.094 1.397-1.618 2.112-.482.653-.443.982.155 1.55z"
      fill="#5279A4"></path>
  </symbol>
  <symbol viewBox="0 0 13 7" fill="none" xmlns="http://www.w3.org/2000/svg" id="vk-icon">
    <path fill-rule="evenodd" clip-rule="evenodd" d="M11.188 4.45c.432.402.887.778 1.273 1.22.171.195.333.398.457.625.175.323.016.68-.288.698h-1.894c-.489.038-.878-.149-1.206-.467-.262-.254-.505-.524-.757-.787a1.768 1.768 0 0 0-.34-.288c-.26-.16-.484-.111-.632.146-.15.26-.184.55-.199.84-.02.425-.155.536-.603.556-.957.043-1.866-.095-2.71-.555-.744-.405-1.321-.977-1.823-1.624C1.488 3.553.738 2.168.066.744-.086.423.025.25.397.244c.618-.011 1.236-.01 1.854 0 .251.003.418.14.514.366.335.782.744 1.526 1.257 2.216.137.183.276.367.475.496.22.143.387.096.49-.137.066-.148.094-.307.109-.465a6.588 6.588 0 0 0-.03-1.629c-.053-.338-.253-.557-.608-.62C4.277.437 4.304.372 4.39.274 4.544.105 4.688 0 4.973 0h2.14c.338.063.412.207.459.53l.001 2.262c-.003.125.066.496.302.578.19.06.314-.085.428-.2.512-.517.878-1.128 1.205-1.762.145-.278.27-.567.39-.856.09-.215.23-.32.484-.315l2.06.001c.061 0 .123.001.182.01.347.057.443.2.335.522-.169.506-.497.927-.819 1.351-.343.452-.71.89-1.051 1.344-.313.416-.288.625.1.986z"
      fill="#fff"></path>
  </symbol>
  <symbol viewBox="0 0 18 16" fill="none" xmlns="http://www.w3.org/2000/svg" id="volume-icon">
    <path d="M12.25 14.6V1.435L5.847 5.46H1.5v5.153h4.348L12.25 14.6zm2.214-10.105A3.79 3.79 0 0 1 17 8.078c0 1.65-1.087 3.06-2.577 3.583" stroke="gray" stroke-width="1.5" stroke-miterlimit="10"></path>
  </symbol>
  <symbol viewBox="0 0 7 13" fill="none" xmlns="http://www.w3.org/2000/svg" id="ya-icon">
    <path d="M6.444.635H4.687c-1.78 0-3.576 1.314-3.576 4.25 0 1.521.645 2.706 1.827 3.38L.775 12.179a.561.561 0 0 0-.007.561c.095.163.27.26.468.26H2.33c.248 0 .442-.12.535-.33l2.028-3.967h.148v3.803a.5.5 0 0 0 .494.494h.955c.3 0 .51-.21.51-.51V1.176c0-.319-.229-.541-.556-.541zM5.041 6.94H4.78c-1.013 0-1.617-.826-1.617-2.21 0-1.721.764-2.334 1.478-2.334h.4V6.94z"
      fill="#fff"></path>
  </symbol>
  <symbol viewBox="0 0 12 6" fill="none" xmlns="http://www.w3.org/2000/svg" id="arrow-down-blk-icon">
    <path d="M.6 1l5.144 4L10.6 1" stroke="#151515" stroke-width="1.5" stroke-miterlimit="10"></path>
  </symbol>
  <symbol viewBox="0 0 12 6" fill="none" xmlns="http://www.w3.org/2000/svg" id="arrow-down-wht-icon">
    <path d="M.6 1l5.144 4L10.6 1" stroke="#E5E5E5" stroke-width="1.5" stroke-miterlimit="10"></path>
  </symbol>
  <symbol viewBox="0 0 37 34" fill="none" xmlns="http://www.w3.org/2000/svg" id="camera-icon">
    <path d="M28.63 5.952l-3.615-4.36c-.35-.348-.872-.523-1.395-.523H13.332c-.524 0-1.047.175-1.221.523L8.624 6.126H4.613C2.87 6.126 1.3 7.521 1.3 9.44v19.879c0 1.743 1.395 3.313 3.313 3.313h28.074c1.744 0 3.313-1.395 3.313-3.313V9.265c0-1.744-1.395-3.313-3.313-3.313H28.63zm-9.893 6.626v11.509m-5.928-5.755H24.49"
      stroke="#fff" stroke-width="2" stroke-miterlimit="10" stroke-linejoin="round"></path>
  </symbol>
  <symbol viewBox="0 0 18 14" fill="none" xmlns="http://www.w3.org/2000/svg" id="check-icon">
    <path d="M1 7.53l4.266 4.488L16.6 1" stroke="#FF7A1B" stroke-width="1.5" stroke-miterlimit="10"></path>
  </symbol>
  <symbol viewBox="0 0 13 13" fill="none" xmlns="http://www.w3.org/2000/svg" id="cross-icon">
    <path d="M1 12L12 1M1 1l11 11" stroke="#151515" stroke-width="1.5" stroke-miterlimit="10"></path>
  </symbol>
  <symbol viewBox="0 0 15 15" fill="none" xmlns="http://www.w3.org/2000/svg" id="cross-wht-icon">
    <path d="M1 14L14 1M1 1l13 13" stroke="#E5E5E5" stroke-width="1.5" stroke-miterlimit="10"></path>
  </symbol>
  <symbol viewBox="0 0 9 19" fill="none" xmlns="http://www.w3.org/2000/svg" id="download-icon">
    <path d="M2.198 4.232v2.387H.448v2.92h1.75v8.676H5.79V9.539h2.411s.226-1.4.336-2.93H5.805V4.611c0-.298.392-.7.779-.7h1.958V.873H5.88c-3.77 0-3.682 2.922-3.682 3.359z" fill="#405994"></path>
  </symbol>
  <symbol viewBox="0 0 23 23" fill="none" xmlns="http://www.w3.org/2000/svg" id="favorites-icon">
    <path d="M11.5 3l2.133 6.564h6.902l-5.584 4.057 2.133 6.565-5.584-4.057-5.584 4.057 2.133-6.565-5.584-4.057h6.902L11.5 3z" stroke="#151515" stroke-width="1.5" stroke-miterlimit="10"></path>
  </symbol>
  <symbol viewBox="0 0 5 11" fill="none" xmlns="http://www.w3.org/2000/svg" id="fb-clr-icon">
    <path d="M1.08 2.13v1.515H0v1.852h1.08V11H3.3V5.497h1.49s.14-.888.208-1.859H3.309V2.372c0-.19.242-.444.481-.444H5V0H3.355c-2.33 0-2.274 1.854-2.274 2.13z" fill="#fff"></path>
  </symbol>
  <symbol viewBox="0 0 17 17" fill="none" xmlns="http://www.w3.org/2000/svg" id="fb-icon">
    <path d="M12.736 7.656l-4.44 4.176a.357.357 0 0 1-.467 0L3.272 7.656M8.062 0v11.832M0 16.038h16.008" stroke="gray" stroke-width="1.5" stroke-miterlimit="10" stroke-linejoin="round"></path>
  </symbol>
  <symbol viewBox="0 0 15 15" fill="none" xmlns="http://www.w3.org/2000/svg" id="go-icon">
    <path fill-rule="evenodd" clip-rule="evenodd" d="M7.645 8.925v-2.79h7.164c.107.473.191.915.191 1.537C15 11.956 12.069 15 7.653 15 3.43 15 0 11.64 0 7.5 0 3.36 3.429 0 7.653 0c2.066 0 3.796.742 5.12 1.957l-2.174 2.07c-.55-.51-1.515-1.11-2.946-1.11-2.533 0-4.6 2.063-4.6 4.59 0 2.528 2.067 4.59 4.6 4.59 2.931 0 4.01-1.987 4.21-3.164H7.644v-.008h.001z"
      fill="#5085ED"></path>
  </symbol>
  <symbol viewBox="0 0 6 12" fill="none" xmlns="http://www.w3.org/2000/svg" id="heading-arrow">
    <path d="M1 11l4-5.144L1 1" stroke="#151515" stroke-width="1.5" stroke-miterlimit="10"></path>
  </symbol>
  <symbol viewBox="0 0 18 16" fill="none" xmlns="http://www.w3.org/2000/svg" id="heart-icon">
    <path d="M8.683 15C.45 9.414 1.008 5.483 1.008 5.483 1.008 3 3.031 1 5.543 1c1.186 0 2.303.483 3.14 1.241C9.52 1.483 10.567 1 11.823 1c2.511 0 4.535 2 4.535 4.483 0 0 .558 3.93-7.675 9.517z" stroke="gray" stroke-width="1.5" stroke-miterlimit="10" stroke-linecap="round"
      stroke-linejoin="round"></path>
  </symbol>
  <symbol viewBox="0 0 10 10" fill="none" xmlns="http://www.w3.org/2000/svg" id="inst-icon">
    <path d="M9.623.378A1.234 1.234 0 0 0 8.718 0H1.283a1.23 1.23 0 0 0-.905.378A1.234 1.234 0 0 0 0 1.283v7.434c0 .352.126.654.378.905.251.252.553.378.905.378h7.435c.35 0 .653-.126.904-.378.252-.251.378-.553.378-.905V1.283c0-.352-.126-.654-.377-.905zM3.59 3.603c.392-.38.864-.57 1.416-.57.555 0 1.03.19 1.422.57.393.38.59.84.59 1.377 0 .539-.197.998-.59 1.377-.393.38-.867.57-1.422.57-.552 0-1.024-.19-1.416-.57A1.845 1.845 0 0 1 3 4.98c0-.538.197-.997.59-1.377zm5.276 4.848a.38.38 0 0 1-.117.283.388.388 0 0 1-.28.114H1.51a.384.384 0 0 1-.283-.114.384.384 0 0 1-.114-.283V4.23h.918c-.086.274-.13.559-.13.854 0 .833.304 1.544.912 2.132a3.042 3.042 0 0 0 2.194.882 3.13 3.13 0 0 0 2.695-1.5c.278-.463.417-.968.417-1.514 0-.295-.044-.58-.13-.853h.878V8.45zm0-5.814a.433.433 0 0 1-.13.319.433.433 0 0 1-.319.13H7.285a.434.434 0 0 1-.319-.13.434.434 0 0 1-.13-.32V1.564c0-.122.043-.227.13-.316a.429.429 0 0 1 .32-.134h1.132c.126 0 .232.045.319.134.087.089.13.194.13.316v1.074z"
      fill="#fff"></path>
  </symbol>
  <symbol viewBox="0 0 14 10" fill="none" xmlns="http://www.w3.org/2000/svg" id="lf-icon">
    <path d="M11.84 4.215l-.356-.118c-.871-.284-1.396-.457-1.396-1.161 0-.571.424-.985 1.009-.985.448 0 .782.193 1.081.629.028.04.082.055.124.031l.88-.466a.096.096 0 0 0 .049-.061.113.113 0 0 0-.008-.08c-.472-.87-1.15-1.292-2.077-1.292-1.41 0-2.322.886-2.322 2.257 0 1.402.882 1.97 2.508 2.525.942.327 1.359.5 1.359 1.196 0 .783-.68 1.345-1.607 1.312-.973-.034-1.266-.569-1.637-1.445a417.048 417.048 0 0 1-1.345-3.234C7.387 1.608 5.968.625 4.21.625 1.89.625 0 2.588 0 5.001c0 2.411 1.89 4.374 4.21 4.374a4.137 4.137 0 0 0 3.257-1.6.106.106 0 0 0 .014-.105l-.53-1.273a.1.1 0 0 0-.087-.06.097.097 0 0 0-.09.053c-.501.995-1.484 1.613-2.564 1.613-1.593 0-2.889-1.347-2.889-3.003 0-1.656 1.296-3.003 2.89-3.003 1.16 0 2.222.715 2.645 1.782L8.169 6.89l.151.35c.594 1.435 1.466 2.079 2.832 2.084 1.624 0 2.848-1.118 2.848-2.6 0-1.487-.792-2.045-2.16-2.509z"
      fill="#fff"></path>
  </symbol>
  <symbol viewBox="0 0 23 13" fill="none" xmlns="http://www.w3.org/2000/svg" id="link-icon">
    <path fill-rule="evenodd" clip-rule="evenodd" d="M16.293 7.112H6.507v-1.5h9.786v1.5z" fill="#151515"></path>
    <path fill-rule="evenodd" clip-rule="evenodd" d="M5.643 2.219a4.143 4.143 0 0 0 0 8.286h4.174v1.5H5.643a5.643 5.643 0 0 1 0-11.286h4.461v1.5h-4.46zm11.081 8.286a4.143 4.143 0 1 0 0-8.286h-4.173v-1.5h4.173a5.643 5.643 0 1 1 0 11.286h-4.46v-1.5h4.46z"
      fill="#151515"></path>
  </symbol>
  <symbol viewBox="0 0 130 26" fill="none" xmlns="http://www.w3.org/2000/svg" id="logo">
    <path d="M10.596 8.114c0-.193 0-.433.048-.625l.968-4.039a1.898 1.898 0 0 0-.871-2.067l-.097-.096c-.92-.577-2.129-.337-2.71.577L.34 13.69c-.63.913-.339 2.115.58 2.692l.146.096c.29.192.58.289.87.289l1.79.144a2.4 2.4 0 0 1 .823.288c.339.24.629.53.774.914.145.384.145.769.097 1.154l-.968 4.375a1.98 1.98 0 0 0 .871 2.019c.968.625 2.274.336 2.855-.625l7.547-11.635c.629-.961.339-2.26-.629-2.836-.242-.145-.58-.24-.87-.289l-1.694-.096h-.145c-.242-.048-.436-.144-.678-.288a2.195 2.195 0 0 1-1.112-1.78z"
      fill="#FF7A1B"></path>
    <path d="M43.495 13.24v6.106c0 .962-.726 1.683-1.645 1.683-.968 0-1.694-.721-1.694-1.683v-5.625c0-1.442-.822-2.356-2.177-2.356s-2.225.914-2.225 2.26v5.721c0 .962-.726 1.683-1.645 1.683-.968 0-1.694-.721-1.694-1.683v-5.625c0-1.442-.87-2.356-2.177-2.356-1.354 0-2.225.914-2.225 2.356v5.673c0 .962-.726 1.683-1.645 1.683-.968 0-1.694-.721-1.694-1.683V10.02c0-.961.726-1.682 1.645-1.682.774 0 1.355.48 1.549 1.201.822-.769 1.983-1.201 3.29-1.201 1.596 0 2.854.625 3.628 1.73.968-1.057 2.419-1.73 4.064-1.73 2.903.048 4.645 1.923 4.645 4.903zm3.095 2.212v-5.433c0-.961.727-1.682 1.694-1.682.92 0 1.645.72 1.645 1.682v5.673c0 1.346.968 2.308 2.322 2.308 1.355 0 2.274-.962 2.274-2.308V10.02c0-.961.678-1.682 1.694-1.682.919 0 1.645.72 1.645 1.682v5.385c0 3.317-2.323 5.625-5.612 5.625-3.387.048-5.661-2.26-5.661-5.577zm13.886 3.894c-.338-.288-.483-.625-.483-1.01a1.4 1.4 0 0 1 1.403-1.394c.338 0 .629.096.967.385.726.625 1.597 1.058 2.661 1.058.823 0 1.548-.337 1.548-1.01 0-.577-.532-.77-1.258-1.106l-1.306-.529c-2.08-.817-3.338-1.779-3.338-3.701 0-2.308 1.887-3.654 4.5-3.654 1.45 0 2.854.48 3.87 1.298.387.288.58.673.58 1.106 0 .769-.629 1.394-1.354 1.394-.29 0-.58-.144-.871-.337-.63-.432-1.403-.721-2.226-.721-.774 0-1.306.289-1.306.865 0 .481.387.721 1.306 1.058l1.162.48c2.177.866 3.434 1.828 3.434 3.703 0 2.5-2.08 3.894-4.74 3.894-1.888-.048-3.484-.721-4.549-1.779zm30.577-6.106v6.106c0 .962-.726 1.683-1.645 1.683-.967 0-1.693-.721-1.693-1.683v-5.625c0-1.442-.823-2.356-2.177-2.356-1.355 0-2.226.914-2.226 2.26v5.721c0 .962-.725 1.683-1.645 1.683-.967 0-1.693-.721-1.693-1.683v-5.625c0-1.442-.871-2.356-2.177-2.356-1.355 0-2.226.914-2.226 2.356v5.673c0 .962-.725 1.683-1.645 1.683-.967 0-1.693-.721-1.693-1.683V10.02c0-.961.726-1.682 1.645-1.682.774 0 1.355.48 1.548 1.201.823-.769 1.984-1.201 3.29-1.201 1.597 0 2.855.625 3.629 1.73.967-1.057 2.419-1.73 4.064-1.73 2.854.048 4.644 1.923 4.644 4.903zm15.579 1.443c0 3.51-2.903 6.346-6.58 6.346-3.629 0-6.531-2.789-6.531-6.346 0-3.558 2.854-6.346 6.531-6.346 3.677.048 6.58 2.836 6.58 6.346zm-9.725.048c0 1.923 1.355 3.269 3.145 3.269s3.145-1.394 3.145-3.27c0-1.922-1.355-3.316-3.145-3.316-1.79-.049-3.145 1.346-3.145 3.317zm20.078-4.76c0 .865-.628 1.49-1.548 1.587-1.79.144-2.854 1.298-2.854 3.125v4.663c0 .962-.726 1.683-1.645 1.683-.968 0-1.693-.721-1.693-1.683V10.02c0-.961.725-1.682 1.644-1.682.871 0 1.549.625 1.597 1.49.774-.865 1.839-1.394 3-1.394.871.048 1.499.625 1.499 1.538zM130 14.058v.096c0 1.01-.726 1.682-1.839 1.682h-6.966c.387 1.539 1.645 2.404 3.435 2.404.871 0 1.79-.24 2.564-.72.242-.145.484-.241.726-.241.774 0 1.354.577 1.354 1.346 0 .529-.242.913-.822 1.346-1.113.721-2.419 1.106-3.871 1.106-3.87 0-6.676-2.74-6.676-6.346s2.757-6.346 6.338-6.346c3.289 0 5.757 2.404 5.757 5.673zm-8.757-.577h5.515c-.048-1.442-1.064-2.452-2.661-2.452-1.403 0-2.515.961-2.854 2.452z"
      fill="#151515"></path>
  </symbol>
  <symbol viewBox="0 0 18 18" fill="none" xmlns="http://www.w3.org/2000/svg" id="mail-icon">
    <path d="M9 0C4.037 0 0 4.037 0 9s4.037 9 9 9a8.997 8.997 0 0 0 4.501-1.205l-1.126-1.948A6.747 6.747 0 0 1 9 15.75 6.757 6.757 0 0 1 2.25 9 6.757 6.757 0 0 1 9 2.25 6.757 6.757 0 0 1 15.75 9v.98c0 .736-.473 1.27-1.125 1.27-.62 0-1.125-.505-1.125-1.125v-4.5h-1.555A4.461 4.461 0 0 0 9 4.5 4.505 4.505 0 0 0 4.5 9c0 2.481 2.019 4.5 4.5 4.5a4.47 4.47 0 0 0 3.054-1.215 3.354 3.354 0 0 0 2.571 1.215C16.517 13.5 18 11.954 18 9.98V9c0-4.963-4.037-9-9-9zm0 11.25c-1.24 0-2.25-1.01-2.25-2.25S7.76 6.75 9 6.75 11.25 7.76 11.25 9 10.24 11.25 9 11.25z"
      fill="#F4AC4C"></path>
  </symbol>
  <symbol viewBox="0 0 21 22" fill="none" xmlns="http://www.w3.org/2000/svg" id="more-icon">
    <path d="M1 12.795c.761 4.376 4.661 7.705 9.227 7.705a9.378 9.378 0 0 0 9.417-9.417 9.378 9.378 0 0 0-9.417-9.417 9.19 9.19 0 0 0-7.42 3.71" stroke="#FF7A1B" stroke-width="1.5" stroke-miterlimit="10"></path>
    <path d="M7.183 5.376H2.808V1" stroke="#FF7A1B" stroke-width="1.5" stroke-miterlimit="10" stroke-linejoin="round"></path>
  </symbol>
  <symbol viewBox="0 0 13 18" fill="none" xmlns="http://www.w3.org/2000/svg" id="od-clr-icon">
    <path fill-rule="evenodd" clip-rule="evenodd" d="M12.602 10.466a8.721 8.721 0 0 1-5.141 2.406l3.296 3.208c.217.21.339.497.339.795 0 .298-.122.584-.34.795a1.155 1.155 0 0 1-.816.33 1.183 1.183 0 0 1-.818-.33l-2.65-2.579-2.652 2.58c-.22.2-.51.308-.812.303a1.176 1.176 0 0 1-.8-.33 1.107 1.107 0 0 1-.338-.778 1.103 1.103 0 0 1 .316-.786l3.295-3.208a8.721 8.721 0 0 1-5.14-2.406A1.123 1.123 0 0 1 0 9.67a1.096 1.096 0 0 1 .34-.795 1.163 1.163 0 0 1 .82-.33 1.191 1.191 0 0 1 .82.329 6.375 6.375 0 0 0 2.063 1.338 6.529 6.529 0 0 0 4.868 0 6.375 6.375 0 0 0 2.064-1.338c.105-.115.233-.208.376-.273a1.188 1.188 0 0 1 1.313.226 1.092 1.092 0 0 1 .223 1.275 1.128 1.128 0 0 1-.285.364zm-6.13-1.467a4.741 4.741 0 0 1-2.58-.752A4.533 4.533 0 0 1 2.176 6.23a4.375 4.375 0 0 1-.27-2.6 4.459 4.459 0 0 1 1.267-2.308A4.684 4.684 0 0 1 5.548.087 4.771 4.771 0 0 1 8.23.341c.848.34 1.574.917 2.084 1.657s.782 1.61.782 2.501a4.43 4.43 0 0 1-1.353 3.178 4.708 4.708 0 0 1-3.271 1.322zm0-6.75a2.37 2.37 0 0 0-1.29.375c-.383.247-.68.598-.857 1.009a2.18 2.18 0 0 0-.135 1.3c.089.437.309.838.633 1.153.324.316.737.53 1.187.618.45.087.917.043 1.341-.127.424-.17.787-.458 1.042-.828a2.202 2.202 0 0 0-.285-2.84 2.354 2.354 0 0 0-1.636-.66z"
      fill="#D96B2A"></path>
  </symbol>
  <symbol viewBox="0 0 9 12" fill="none" xmlns="http://www.w3.org/2000/svg" id="od-icon">
    <path fill-rule="evenodd" clip-rule="evenodd" d="M7.956 6.811A5.438 5.438 0 0 1 4.71 8.377l2.08 2.087a.733.733 0 0 1-.794 1.194.727.727 0 0 1-.237-.158L4.086 9.82 2.412 11.5a.731.731 0 0 1-1.032-1.036l2.08-2.087A5.438 5.438 0 0 1 .216 6.81.732.732 0 0 1 1.25 5.775a4.015 4.015 0 0 0 5.678 0 .731.731 0 1 1 1.028 1.036zm-3.87-.955A2.928 2.928 0 1 1 4.069 0a2.928 2.928 0 0 1 .017 5.856zm0-4.393a1.464 1.464 0 1 0-.009 2.928 1.464 1.464 0 0 0 .009-2.928z"
      fill="#fff"></path>
  </symbol>
  <symbol viewBox="0 0 8 10" fill="none" xmlns="http://www.w3.org/2000/svg" id="pause-icon">
    <path d="M3 0H0v10h3V0zm5 0H5v10h3V0z" fill="#151515"></path>
  </symbol>
  <symbol viewBox="0 0 8 10" fill="none" xmlns="http://www.w3.org/2000/svg" id="pause-orange-icon">
    <path d="M3 0H0v10h3V0zm5 0H5v10h3V0z" fill="#fff"></path>
  </symbol>
  <symbol viewBox="0 0 21 20" fill="none" xmlns="http://www.w3.org/2000/svg" id="pause-white-icon">
    <path d="M2.564 13.388L2 18.237l4.848-.339 1.804-1.691L18.8 6.397 14.516 2 4.03 12.035l-1.466 1.353z" stroke="#FF7A1B" stroke-width="2" stroke-miterlimit="10"></path>
  </symbol>
  <symbol viewBox="0 0 33 33" fill="none" xmlns="http://www.w3.org/2000/svg" id="pencil-icon">
    <mask id="a" maskUnits="userSpaceOnUse" x="0" y="0" width="33" height="33">
      <path d="M16.5 33C25.613 33 33 25.613 33 16.5S25.613 0 16.5 0 0 7.387 0 16.5 7.387 33 16.5 33z" fill="#32438E"></path>
    </mask>
    <g mask="url(#a)">
      <path d="M16.5 33C25.613 33 33 25.613 33 16.5S25.613 0 16.5 0 0 7.387 0 16.5 7.387 33 16.5 33z" fill="#E5E5E5"></path>
      <path d="M11.72 22.538a6.075 6.075 0 0 0-6.076 6.077v5.82h21.712v-5.82a6.075 6.075 0 0 0-6.077-6.077h-9.558zm4.78-3.908a5.326 5.326 0 1 0 0-10.652 5.326 5.326 0 0 0 0 10.651z" fill="#C4C4C4"></path>
    </g>
  </symbol>
</svg>