<svg width="0" height="0" class="hidden">
  <symbol viewBox="0 0 33 33" fill="none" xmlns="http://www.w3.org/2000/svg" id="person-icon">
    <mask id="a" maskUnits="userSpaceOnUse" x="0" y="0" width="33" height="33">
      <path d="M16.5 33C25.613 33 33 25.613 33 16.5S25.613 0 16.5 0 0 7.387 0 16.5 7.387 33 16.5 33z" fill="#32438E"></path>
    </mask>
    <g mask="url(#a)">
      <path d="M16.5 33C25.613 33 33 25.613 33 16.5S25.613 0 16.5 0 0 7.387 0 16.5 7.387 33 16.5 33z" fill="#E5E5E5"></path>
      <path d="M11.72 22.538a6.075 6.075 0 0 0-6.076 6.077v5.82h21.712v-5.82a6.075 6.075 0 0 0-6.077-6.077h-9.558zm4.78-3.908a5.326 5.326 0 1 0 0-10.652 5.326 5.326 0 0 0 0 10.651z" fill="#C4C4C4"></path>
    </g>
  </symbol>
  <symbol viewBox="0 0 13 17" fill="none" xmlns="http://www.w3.org/2000/svg" id="play-btn">
    <path d="M12.354 8.883L.895 16.97V.797l11.459 8.086z" fill="#151515"></path>
  </symbol>
  <symbol viewBox="0 0 6 10" fill="none" xmlns="http://www.w3.org/2000/svg" id="play-white-btn">
    <path d="M6 5L0 9.33V.67L6 5z" fill="#fff"></path>
  </symbol>
  <symbol viewBox="0 0 15 16" fill="none" xmlns="http://www.w3.org/2000/svg" id="plus-icon">
    <path d="M7.523 0v8m0 0v8m0-8H0m7.523 0H15" stroke="gray" stroke-width="1.5"></path>
  </symbol>
  <symbol viewBox="0 0 20 17" fill="none" xmlns="http://www.w3.org/2000/svg" id="repeat-icon">
    <path d="M18.576 4.023l-3.124 2.272V1.75l3.124 2.272z" fill="gray" stroke="gray"></path>
    <path d="M14.952 4.023H5.369A3.35 3.35 0 0 0 2.02 7.37v.693" stroke="gray" stroke-width="1.5" stroke-miterlimit="10"></path>
    <path d="M1.514 13.953l3.124-2.272v4.544l-3.124-2.272z" fill="gray" stroke="gray"></path>
    <path d="M5.022 13.953h9.7a3.35 3.35 0 0 0 3.348-3.349v-.693" stroke="gray" stroke-width="1.5" stroke-miterlimit="10"></path>
  </symbol>
  <symbol viewBox="0 0 19 19" fill="none" xmlns="http://www.w3.org/2000/svg" id="search-icon">
    <path d="M7.8 13.716c3.345 0 6.055-2.678 6.055-5.982 0-3.303-2.71-5.98-6.054-5.98-3.344 0-6.055 2.677-6.055 5.98 0 3.304 2.71 5.982 6.055 5.982zM12 12l6 6" stroke="#151515" stroke-width="2" stroke-miterlimit="10"></path>
  </symbol>
  <symbol viewBox="0 0 14 17" fill="none" xmlns="http://www.w3.org/2000/svg" id="share-icon">
    <path d="M13 7.951V16H1V7.951m6 2.744V1.183M4 4.104L6.995 1l2.818 3.104" stroke="gray" stroke-width="1.5" stroke-linejoin="round"></path>
  </symbol>
  <symbol viewBox="0 0 22 16" fill="none" xmlns="http://www.w3.org/2000/svg" id="shuffle-icon">
    <path d="M0 12.994h2.01c2.122 0 4.132-.843 5.584-2.529l3.573-3.973c1.452-1.566 3.462-2.529 5.584-2.529h1.005M6.812 5.288C5.36 3.723 3.35 2.759 1.228 2.759H.223M18.09 11.79h-2.01c-.78 0-1.45-.12-2.233-.361" stroke="gray" stroke-width="1.5" stroke-miterlimit="10"></path>
    <path d="M21.786 4.29L18.1 7.18c-.112.12-.335 0-.335-.24V1.16c0-.241.223-.362.335-.241l3.685 2.89c.111.12.111.36 0 .481zm0 7.345L18.1 8.745c-.112-.12-.335 0-.335.241v5.78c0 .24.223.36.335.24l3.685-2.89c.111-.12.111-.36 0-.481z" fill="gray"></path>
  </symbol>
  <symbol viewBox="0 0 14 15" fill="none" xmlns="http://www.w3.org/2000/svg" id="skip-left-icon">
    <path d="M2 7.333l9-6.35v12.701l-9-6.35zm0 6.334H0v-13h2z" fill="#C4C4C4"></path>
  </symbol>
  <symbol viewBox="0 0 14 15" fill="none" xmlns="http://www.w3.org/2000/svg" id="skip-right-icon">
    <path d="M12 7.333l-9 6.351V.982l9 6.351zM12 1h2v13h-2z" fill="#C4C4C4"></path>
  </symbol>
  <symbol viewBox="0 0 8 17" fill="none" xmlns="http://www.w3.org/2000/svg" id="slider-arrow-left">
    <path d="M7 1L1 8.716 7 16" stroke="gray" stroke-width="1.5" stroke-miterlimit="10"></path>
  </symbol>
  <symbol viewBox="0 0 8 17" fill="none" xmlns="http://www.w3.org/2000/svg" id="slider-arrow-right">
    <path d="M1 16l6-7.716L1 1" stroke="gray" stroke-width="1.5" stroke-miterlimit="10"></path>
  </symbol>
  <symbol viewBox="0 0 14 10" fill="none" xmlns="http://www.w3.org/2000/svg" id="twitter-icon">
    <path d="M13.156 1.183c-.453.2-.94.337-1.45.398.521-.312.92-.808 1.11-1.396-.49.289-1.03.499-1.605.613A2.526 2.526 0 0 0 6.908 3.1 7.17 7.17 0 0 1 1.701.462a2.524 2.524 0 0 0 .782 3.371 2.526 2.526 0 0 1-1.144-.317v.031a2.53 2.53 0 0 0 2.026 2.477 2.558 2.558 0 0 1-.666.088c-.163 0-.32-.016-.475-.047A2.527 2.527 0 0 0 4.583 7.82 5.067 5.067 0 0 1 1.447 8.9c-.204 0-.405-.013-.602-.035A7.139 7.139 0 0 0 4.715 10c4.647 0 7.186-3.848 7.186-7.185l-.008-.327a5.043 5.043 0 0 0 1.263-1.305z"
      fill="#fff"></path>
  </symbol>
  <symbol viewBox="0 0 21 21" fill="none" xmlns="http://www.w3.org/2000/svg" id="user-icon">
    <path d="M10.5 20a9.5 9.5 0 1 0 0-19 9.5 9.5 0 0 0 0 19z" stroke="#151515" stroke-width="1.5" stroke-miterlimit="10"></path>
    <path d="M10.5 11.726a3.066 3.066 0 1 0 0-6.133 3.066 3.066 0 0 0 0 6.133zm-6.25 5.749a3.498 3.498 0 0 1 3.498-3.498h5.504a3.498 3.498 0 0 1 3.498 3.498" stroke="#151515" stroke-width="1.5" stroke-miterlimit="10"></path>
  </symbol>
  <symbol viewBox="0 0 13 7" fill="none" xmlns="http://www.w3.org/2000/svg" id="vk-icon">
    <path fill-rule="evenodd" clip-rule="evenodd" d="M11.188 4.45c.432.402.887.778 1.273 1.22.171.195.333.398.457.625.175.323.016.68-.288.698h-1.894c-.489.038-.878-.149-1.206-.467-.262-.254-.505-.524-.757-.787a1.768 1.768 0 0 0-.34-.288c-.26-.16-.484-.111-.632.146-.15.26-.184.55-.199.84-.02.425-.155.536-.603.556-.957.043-1.866-.095-2.71-.555-.744-.405-1.321-.977-1.823-1.624C1.488 3.553.738 2.168.066.744-.086.423.025.25.397.244c.618-.011 1.236-.01 1.854 0 .251.003.418.14.514.366.335.782.744 1.526 1.257 2.216.137.183.276.367.475.496.22.143.387.096.49-.137.066-.148.094-.307.109-.465a6.588 6.588 0 0 0-.03-1.629c-.053-.338-.253-.557-.608-.62C4.277.437 4.304.372 4.39.274 4.544.105 4.688 0 4.973 0h2.14c.338.063.412.207.459.53l.001 2.262c-.003.125.066.496.302.578.19.06.314-.085.428-.2.512-.517.878-1.128 1.205-1.762.145-.278.27-.567.39-.856.09-.215.23-.32.484-.315l2.06.001c.061 0 .123.001.182.01.347.057.443.2.335.522-.169.506-.497.927-.819 1.351-.343.452-.71.89-1.051 1.344-.313.416-.288.625.1.986z"
      fill="#fff"></path>
  </symbol>
  <symbol viewBox="0 0 18 16" fill="none" xmlns="http://www.w3.org/2000/svg" id="volume-icon">
    <path d="M12.25 14.6V1.435L5.847 5.46H1.5v5.153h4.348L12.25 14.6zm2.214-10.105A3.79 3.79 0 0 1 17 8.078c0 1.65-1.087 3.06-2.577 3.583" stroke="gray" stroke-width="1.5" stroke-miterlimit="10"></path>
  </symbol>
  <symbol viewBox="0 0 5 11" fill="none" xmlns="http://www.w3.org/2000/svg" id="fb-icon">
    <path d="M1.08 2.13v1.515H0v1.852h1.08V11H3.3V5.497h1.49s.14-.888.208-1.859H3.309V2.372c0-.19.242-.444.481-.444H5V0H3.355c-2.33 0-2.274 1.854-2.274 2.13z" fill="#fff"></path>
  </symbol>
  <symbol viewBox="0 0 15 15" fill="none" xmlns="http://www.w3.org/2000/svg" id="go-icon">
    <path fill-rule="evenodd" clip-rule="evenodd" d="M7.645 8.925v-2.79h7.164c.107.473.191.915.191 1.537C15 11.956 12.069 15 7.653 15 3.43 15 0 11.64 0 7.5 0 3.36 3.429 0 7.653 0c2.066 0 3.796.742 5.12 1.957l-2.174 2.07c-.55-.51-1.515-1.11-2.946-1.11-2.533 0-4.6 2.063-4.6 4.59 0 2.528 2.067 4.59 4.6 4.59 2.931 0 4.01-1.987 4.21-3.164H7.644v-.008h.001z"
      fill="#5085ED"></path>
  </symbol>
  <symbol viewBox="0 0 6 12" fill="none" xmlns="http://www.w3.org/2000/svg" id="heading-arrow">
    <path d="M1 11l4-5.144L1 1" stroke="#151515" stroke-width="1.5" stroke-miterlimit="10"></path>
  </symbol>
  <symbol viewBox="0 0 18 16" fill="none" xmlns="http://www.w3.org/2000/svg" id="heart-icon">
    <path d="M8.683 15C.45 9.414 1.008 5.483 1.008 5.483 1.008 3 3.031 1 5.543 1c1.186 0 2.303.483 3.14 1.241C9.52 1.483 10.567 1 11.823 1c2.511 0 4.535 2 4.535 4.483 0 0 .558 3.93-7.675 9.517z" stroke="gray" stroke-width="1.5" stroke-miterlimit="10" stroke-linecap="round"
      stroke-linejoin="round"></path>
  </symbol>
  <symbol viewBox="0 0 23 13" fill="none" xmlns="http://www.w3.org/2000/svg" id="link-icon">
    <path fill-rule="evenodd" clip-rule="evenodd" d="M16.293 7.112H6.507v-1.5h9.786v1.5z" fill="#151515"></path>
    <path fill-rule="evenodd" clip-rule="evenodd" d="M5.643 2.219a4.143 4.143 0 0 0 0 8.286h4.174v1.5H5.643a5.643 5.643 0 0 1 0-11.286h4.461v1.5h-4.46zm11.081 8.286a4.143 4.143 0 1 0 0-8.286h-4.173v-1.5h4.173a5.643 5.643 0 1 1 0 11.286h-4.46v-1.5h4.46z"
      fill="#151515"></path>
  </symbol>
  <symbol viewBox="0 0 130 26" fill="none" xmlns="http://www.w3.org/2000/svg" id="logo">
    <path d="M10.596 8.114c0-.193 0-.433.048-.625l.968-4.039a1.898 1.898 0 0 0-.871-2.067l-.097-.096c-.92-.577-2.129-.337-2.71.577L.34 13.69c-.63.913-.339 2.115.58 2.692l.146.096c.29.192.58.289.87.289l1.79.144a2.4 2.4 0 0 1 .823.288c.339.24.629.53.774.914.145.384.145.769.097 1.154l-.968 4.375a1.98 1.98 0 0 0 .871 2.019c.968.625 2.274.336 2.855-.625l7.547-11.635c.629-.961.339-2.26-.629-2.836-.242-.145-.58-.24-.87-.289l-1.694-.096h-.145c-.242-.048-.436-.144-.678-.288a2.195 2.195 0 0 1-1.112-1.78z"
      fill="#FF7A1B"></path>
    <path d="M43.495 13.24v6.106c0 .962-.726 1.683-1.645 1.683-.968 0-1.694-.721-1.694-1.683v-5.625c0-1.442-.822-2.356-2.177-2.356s-2.225.914-2.225 2.26v5.721c0 .962-.726 1.683-1.645 1.683-.968 0-1.694-.721-1.694-1.683v-5.625c0-1.442-.87-2.356-2.177-2.356-1.354 0-2.225.914-2.225 2.356v5.673c0 .962-.726 1.683-1.645 1.683-.968 0-1.694-.721-1.694-1.683V10.02c0-.961.726-1.682 1.645-1.682.774 0 1.355.48 1.549 1.201.822-.769 1.983-1.201 3.29-1.201 1.596 0 2.854.625 3.628 1.73.968-1.057 2.419-1.73 4.064-1.73 2.903.048 4.645 1.923 4.645 4.903zm3.095 2.212v-5.433c0-.961.727-1.682 1.694-1.682.92 0 1.645.72 1.645 1.682v5.673c0 1.346.968 2.308 2.322 2.308 1.355 0 2.274-.962 2.274-2.308V10.02c0-.961.678-1.682 1.694-1.682.919 0 1.645.72 1.645 1.682v5.385c0 3.317-2.323 5.625-5.612 5.625-3.387.048-5.661-2.26-5.661-5.577zm13.886 3.894c-.338-.288-.483-.625-.483-1.01a1.4 1.4 0 0 1 1.403-1.394c.338 0 .629.096.967.385.726.625 1.597 1.058 2.661 1.058.823 0 1.548-.337 1.548-1.01 0-.577-.532-.77-1.258-1.106l-1.306-.529c-2.08-.817-3.338-1.779-3.338-3.701 0-2.308 1.887-3.654 4.5-3.654 1.45 0 2.854.48 3.87 1.298.387.288.58.673.58 1.106 0 .769-.629 1.394-1.354 1.394-.29 0-.58-.144-.871-.337-.63-.432-1.403-.721-2.226-.721-.774 0-1.306.289-1.306.865 0 .481.387.721 1.306 1.058l1.162.48c2.177.866 3.434 1.828 3.434 3.703 0 2.5-2.08 3.894-4.74 3.894-1.888-.048-3.484-.721-4.549-1.779zm30.577-6.106v6.106c0 .962-.726 1.683-1.645 1.683-.967 0-1.693-.721-1.693-1.683v-5.625c0-1.442-.823-2.356-2.177-2.356-1.355 0-2.226.914-2.226 2.26v5.721c0 .962-.725 1.683-1.645 1.683-.967 0-1.693-.721-1.693-1.683v-5.625c0-1.442-.871-2.356-2.177-2.356-1.355 0-2.226.914-2.226 2.356v5.673c0 .962-.725 1.683-1.645 1.683-.967 0-1.693-.721-1.693-1.683V10.02c0-.961.726-1.682 1.645-1.682.774 0 1.355.48 1.548 1.201.823-.769 1.984-1.201 3.29-1.201 1.597 0 2.855.625 3.629 1.73.967-1.057 2.419-1.73 4.064-1.73 2.854.048 4.644 1.923 4.644 4.903zm15.579 1.443c0 3.51-2.903 6.346-6.58 6.346-3.629 0-6.531-2.789-6.531-6.346 0-3.558 2.854-6.346 6.531-6.346 3.677.048 6.58 2.836 6.58 6.346zm-9.725.048c0 1.923 1.355 3.269 3.145 3.269s3.145-1.394 3.145-3.27c0-1.922-1.355-3.316-3.145-3.316-1.79-.049-3.145 1.346-3.145 3.317zm20.078-4.76c0 .865-.628 1.49-1.548 1.587-1.79.144-2.854 1.298-2.854 3.125v4.663c0 .962-.726 1.683-1.645 1.683-.968 0-1.693-.721-1.693-1.683V10.02c0-.961.725-1.682 1.644-1.682.871 0 1.549.625 1.597 1.49.774-.865 1.839-1.394 3-1.394.871.048 1.499.625 1.499 1.538zM130 14.058v.096c0 1.01-.726 1.682-1.839 1.682h-6.966c.387 1.539 1.645 2.404 3.435 2.404.871 0 1.79-.24 2.564-.72.242-.145.484-.241.726-.241.774 0 1.354.577 1.354 1.346 0 .529-.242.913-.822 1.346-1.113.721-2.419 1.106-3.871 1.106-3.87 0-6.676-2.74-6.676-6.346s2.757-6.346 6.338-6.346c3.289 0 5.757 2.404 5.757 5.673zm-8.757-.577h5.515c-.048-1.442-1.064-2.452-2.661-2.452-1.403 0-2.515.961-2.854 2.452z"
      fill="#151515"></path>
  </symbol>
  <symbol viewBox="0 0 18 18" fill="none" xmlns="http://www.w3.org/2000/svg" id="mail-icon">
    <path d="M9 0C4.037 0 0 4.037 0 9s4.037 9 9 9a8.997 8.997 0 0 0 4.501-1.205l-1.126-1.948A6.747 6.747 0 0 1 9 15.75 6.757 6.757 0 0 1 2.25 9 6.757 6.757 0 0 1 9 2.25 6.757 6.757 0 0 1 15.75 9v.98c0 .736-.473 1.27-1.125 1.27-.62 0-1.125-.505-1.125-1.125v-4.5h-1.555A4.461 4.461 0 0 0 9 4.5 4.505 4.505 0 0 0 4.5 9c0 2.481 2.019 4.5 4.5 4.5a4.47 4.47 0 0 0 3.054-1.215 3.354 3.354 0 0 0 2.571 1.215C16.517 13.5 18 11.954 18 9.98V9c0-4.963-4.037-9-9-9zm0 11.25c-1.24 0-2.25-1.01-2.25-2.25S7.76 6.75 9 6.75 11.25 7.76 11.25 9 10.24 11.25 9 11.25z"
      fill="#F4AC4C"></path>
  </symbol>
  <symbol viewBox="0 0 21 22" fill="none" xmlns="http://www.w3.org/2000/svg" id="more-icon">
    <path d="M1 12.795c.761 4.376 4.661 7.705 9.227 7.705a9.378 9.378 0 0 0 9.417-9.417 9.378 9.378 0 0 0-9.417-9.417 9.19 9.19 0 0 0-7.42 3.71" stroke="#FF7A1B" stroke-width="1.5" stroke-miterlimit="10"></path>
    <path d="M7.183 5.376H2.808V1" stroke="#FF7A1B" stroke-width="1.5" stroke-miterlimit="10" stroke-linejoin="round"></path>
  </symbol>
  <symbol viewBox="0 0 9 12" fill="none" xmlns="http://www.w3.org/2000/svg" id="od-icon">
    <path fill-rule="evenodd" clip-rule="evenodd" d="M7.956 6.811A5.438 5.438 0 0 1 4.71 8.377l2.08 2.087a.733.733 0 0 1-.794 1.194.727.727 0 0 1-.237-.158L4.086 9.82 2.412 11.5a.731.731 0 0 1-1.032-1.036l2.08-2.087A5.438 5.438 0 0 1 .216 6.81.732.732 0 0 1 1.25 5.775a4.015 4.015 0 0 0 5.678 0 .731.731 0 1 1 1.028 1.036zm-3.87-.955A2.928 2.928 0 1 1 4.069 0a2.928 2.928 0 0 1 .017 5.856zm0-4.393a1.464 1.464 0 1 0-.009 2.928 1.464 1.464 0 0 0 .009-2.928z"
      fill="#fff"></path>
  </symbol>
  <symbol viewBox="0 0 8 10" fill="none" xmlns="http://www.w3.org/2000/svg" id="pause-icon">
    <path d="M3 0H0v10h3V0zm5 0H5v10h3V0z" fill="#151515"></path>
  </symbol>
  <symbol viewBox="0 0 8 10" fill="none" xmlns="http://www.w3.org/2000/svg" id="pause-orange-icon">
    <path d="M3 0H0v10h3V0zm5 0H5v10h3V0z" fill="#FF7A1B"></path>
  </symbol>
  <symbol viewBox="0 0 8 10" fill="none" xmlns="http://www.w3.org/2000/svg" id="pause-white-icon">
    <path d="M3 0H0v10h3V0zm5 0H5v10h3V0z" fill="#fff"></path>
  </symbol>
  <symbol viewBox="0 0 21 20" fill="none" xmlns="http://www.w3.org/2000/svg" id="pencil-icon">
    <path d="M2.564 13.388L2 18.237l4.848-.339 1.804-1.691L18.8 6.397 14.516 2 4.03 12.035l-1.466 1.353z" stroke="#FF7A1B" stroke-width="2" stroke-miterlimit="10"></path>
  </symbol>
</svg>