<svg width="21" height="21" viewBox="0 0 21 21" fill="none" xmlns="http://www.w3.org/2000/svg">
<path d="M10.5 20C15.7467 20 20 15.7467 20 10.5C20 5.2533 15.7467 1 10.5 1C5.2533 1 1 5.2533 1 10.5C1 15.7467 5.2533 20 10.5 20Z" stroke="#151515" stroke-width="1.5" stroke-miterlimit="10"/>
<path d="M10.5 11.7258C12.1935 11.7258 13.5663 10.353 13.5663 8.65959C13.5663 6.96617 12.1935 5.59338 10.5 5.59338C8.80663 5.59338 7.43384 6.96617 7.43384 8.65959C7.43384 10.353 8.80663 11.7258 10.5 11.7258Z" stroke="#151515" stroke-width="1.5" stroke-miterlimit="10"/>
<path d="M4.24976 17.4752C4.24976 15.5359 5.82217 13.9766 7.74838 13.9766H13.2518C15.1911 13.9766 16.7505 15.549 16.7505 17.4752" stroke="#151515" stroke-width="1.5" stroke-miterlimit="10"/>
</svg>
