<svg width="130" height="26" fill="none" xmlns="http://www.w3.org/2000/svg"><path d="M10.596 8.114c0-.193 0-.433.048-.625l.968-4.039a1.898 1.898 0 00-.871-2.067l-.097-.096c-.92-.577-2.129-.337-2.71.577L.34 13.69c-.63.913-.339 2.115.58 2.692l.146.096c.29.192.58.289.87.289l1.79.144a2.4 2.4 0 01.823.288c.339.24.629.53.774.914.145.384.145.769.097 1.154l-.968 4.375a1.98 1.98 0 00.871 2.019c.968.625 2.274.336 2.855-.625l7.547-11.635c.629-.961.339-2.26-.629-2.836-.242-.145-.58-.24-.87-.289l-1.694-.096h-.145c-.242-.048-.436-.144-.678-.288a2.195 2.195 0 01-1.112-1.78z" fill="#FF7A1B"/><path d="M43.495 13.24v6.106c0 .962-.726 1.683-1.645 1.683-.968 0-1.694-.721-1.694-1.683v-5.625c0-1.442-.822-2.356-2.177-2.356s-2.225.914-2.225 2.26v5.721c0 .962-.726 1.683-1.645 1.683-.968 0-1.694-.721-1.694-1.683v-5.625c0-1.442-.87-2.356-2.177-2.356-1.354 0-2.225.914-2.225 2.356v5.673c0 .962-.726 1.683-1.645 1.683-.968 0-1.694-.721-1.694-1.683V10.02c0-.961.726-1.682 1.645-1.682.774 0 1.355.48 1.549 1.201.822-.769 1.983-1.201 3.29-1.201 1.596 0 2.854.625 3.628 1.73.968-1.057 2.419-1.73 4.064-1.73 2.903.048 4.645 1.923 4.645 4.903zm3.095 2.212v-5.433c0-.961.727-1.682 1.694-1.682.92 0 1.645.72 1.645 1.682v5.673c0 1.346.968 2.308 2.322 2.308 1.355 0 2.274-.962 2.274-2.308V10.02c0-.961.678-1.682 1.694-1.682.919 0 1.645.72 1.645 1.682v5.385c0 3.317-2.323 5.625-5.612 5.625-3.387.048-5.661-2.26-5.661-5.577zm13.886 3.894c-.338-.288-.483-.625-.483-1.01a1.4 1.4 0 011.403-1.394c.338 0 .629.096.967.385.726.625 1.597 1.058 2.661 1.058.823 0 1.548-.337 1.548-1.01 0-.577-.532-.77-1.258-1.106l-1.306-.529c-2.08-.817-3.338-1.779-3.338-3.701 0-2.308 1.887-3.654 4.5-3.654 1.45 0 2.854.48 3.87 1.298.387.288.58.673.58 1.106 0 .769-.629 1.394-1.354 1.394-.29 0-.58-.144-.871-.337-.63-.432-1.403-.721-2.226-.721-.774 0-1.306.289-1.306.865 0 .481.387.721 1.306 1.058l1.162.48c2.177.866 3.434 1.828 3.434 3.703 0 2.5-2.08 3.894-4.74 3.894-1.888-.048-3.484-.721-4.549-1.779zm30.577-6.106v6.106c0 .962-.726 1.683-1.645 1.683-.967 0-1.693-.721-1.693-1.683v-5.625c0-1.442-.823-2.356-2.177-2.356-1.355 0-2.226.914-2.226 2.26v5.721c0 .962-.725 1.683-1.645 1.683-.967 0-1.693-.721-1.693-1.683v-5.625c0-1.442-.871-2.356-2.177-2.356-1.355 0-2.226.914-2.226 2.356v5.673c0 .962-.725 1.683-1.645 1.683-.967 0-1.693-.721-1.693-1.683V10.02c0-.961.726-1.682 1.645-1.682.774 0 1.355.48 1.548 1.201.823-.769 1.984-1.201 3.29-1.201 1.597 0 2.855.625 3.629 1.73.967-1.057 2.419-1.73 4.064-1.73 2.854.048 4.644 1.923 4.644 4.903zm15.579 1.443c0 3.51-2.903 6.346-6.58 6.346-3.629 0-6.531-2.789-6.531-6.346 0-3.558 2.854-6.346 6.531-6.346 3.677.048 6.58 2.836 6.58 6.346zm-9.725.048c0 1.923 1.355 3.269 3.145 3.269s3.145-1.394 3.145-3.27c0-1.922-1.355-3.316-3.145-3.316-1.79-.049-3.145 1.346-3.145 3.317zm20.078-4.76c0 .865-.628 1.49-1.548 1.587-1.79.144-2.854 1.298-2.854 3.125v4.663c0 .962-.726 1.683-1.645 1.683-.968 0-1.693-.721-1.693-1.683V10.02c0-.961.725-1.682 1.644-1.682.871 0 1.549.625 1.597 1.49.774-.865 1.839-1.394 3-1.394.871.048 1.499.625 1.499 1.538zM130 14.058v.096c0 1.01-.726 1.682-1.839 1.682h-6.966c.387 1.539 1.645 2.404 3.435 2.404.871 0 1.79-.24 2.564-.72.242-.145.484-.241.726-.241.774 0 1.354.577 1.354 1.346 0 .529-.242.913-.822 1.346-1.113.721-2.419 1.106-3.871 1.106-3.87 0-6.676-2.74-6.676-6.346s2.757-6.346 6.338-6.346c3.289 0 5.757 2.404 5.757 5.673zm-8.757-.577h5.515c-.048-1.442-1.064-2.452-2.661-2.452-1.403 0-2.515.961-2.854 2.452z" fill="#151515"/></svg>