<svg width="18" height="18" fill="none" xmlns="http://www.w3.org/2000/svg"><path d="M9 0C4.037 0 0 4.037 0 9s4.037 9 9 9a8.997 8.997 0 004.501-1.205l-1.126-1.948A6.747 6.747 0 019 15.75 6.757 6.757 0 012.25 9 6.757 6.757 0 019 2.25 6.757 6.757 0 0115.75 9v.98c0 .736-.473 1.27-1.125 1.27-.62 0-1.125-.505-1.125-1.125v-4.5h-1.555A4.461 4.461 0 009 4.5 4.505 4.505 0 004.5 9c0 2.481 2.019 4.5 4.5 4.5a4.47 4.47 0 003.054-1.215 3.354 3.354 0 002.571 1.215C16.517 13.5 18 11.954 18 9.98V9c0-4.963-4.037-9-9-9zm0 11.25c-1.24 0-2.25-1.01-2.25-2.25S7.76 6.75 9 6.75 11.25 7.76 11.25 9 10.24 11.25 9 11.25z" fill="#F4AC4C"/></svg>