<svg width="33" height="33" fill="none" xmlns="http://www.w3.org/2000/svg"><mask id="a" maskUnits="userSpaceOnUse" x="0" y="0" width="33" height="33"><path d="M16.5 33C25.613 33 33 25.613 33 16.5S25.613 0 16.5 0 0 7.387 0 16.5 7.387 33 16.5 33z" fill="#32438E"/></mask><g mask="url(#a)"><path d="M16.5 33C25.613 33 33 25.613 33 16.5S25.613 0 16.5 0 0 7.387 0 16.5 7.387 33 16.5 33z" fill="#E5E5E5"/><path d="M11.72 22.538a6.075 6.075 0 00-6.076 6.077v5.82h21.712v-5.82a6.075 6.075 0 00-6.077-6.077h-9.558zm4.78-3.908a5.326 5.326 0 100-10.652 5.326 5.326 0 000 10.651z" fill="#C4C4C4"/></g></svg>