<svg width="22" height="16" fill="none" xmlns="http://www.w3.org/2000/svg"><path d="M0 12.994h2.01c2.122 0 4.132-.843 5.584-2.529l3.573-3.973c1.452-1.566 3.462-2.529 5.584-2.529h1.005M6.812 5.288C5.36 3.723 3.35 2.759 1.228 2.759H.223M18.09 11.79h-2.01c-.78 0-1.45-.12-2.233-.361" stroke="gray" stroke-width="1.5" stroke-miterlimit="10"/><path d="M21.786 4.29L18.1 7.18c-.112.12-.335 0-.335-.24V1.16c0-.241.223-.362.335-.241l3.685 2.89c.111.12.111.36 0 .481zm0 7.345L18.1 8.745c-.112-.12-.335 0-.335.241v5.78c0 .24.223.36.335.24l3.685-2.89c.111-.12.111-.36 0-.481z" fill="gray"/></svg>